<svg width="487" height="167" viewBox="0 0 487 167" fill="none" xmlns="http://www.w3.org/2000/svg">
<g clip-path="url(#clip0_899_6270)">
<path d="M100.875 9.31267C107.254 13.1842 113.656 16.9404 120.224 20.4843C125.018 23.1018 129.728 25.8585 134.438 28.6252C135.404 29.1846 136.37 29.7441 137.365 30.3205C138.295 30.867 139.225 31.4136 140.184 31.9767C141.014 32.4622 141.845 32.9477 142.701 33.4479C145.263 35.178 147.067 36.5663 149 39.0002C149.374 41.6504 149.508 43.8784 149.454 46.5226C149.455 47.2742 149.455 48.0258 149.456 48.8002C149.453 51.2788 149.422 53.7562 149.391 56.2345C149.383 57.9552 149.377 59.6758 149.373 61.3965C149.358 65.9209 149.319 70.4449 149.275 74.9691C149.234 79.5875 149.215 84.2059 149.195 88.8244C149.152 97.8832 149.084 106.942 149 116C149.763 116.289 150.526 116.578 151.312 116.875C154 118 154 118 157 120C157.59 122.348 157.59 122.348 157 125C154.856 126.786 152.96 128.068 150.562 129.438C149.506 130.069 149.506 130.069 148.428 130.714C140.971 135.126 133.381 139.319 125.805 143.523C117.115 148.346 108.522 153.323 99.9668 158.382C97.3213 159.94 94.6638 161.474 92 163C91.2706 163.436 90.5411 163.871 89.7896 164.32C86.4211 166.209 84.4479 166.997 80.5156 167.024C76.1831 165.762 72.6274 163.9 68.75 161.625C67.9728 161.181 67.1956 160.737 66.3948 160.279C63.9235 158.864 61.4617 157.432 59 156C57.4002 155.08 55.8 154.161 54.1992 153.242C49.4548 150.514 44.7249 147.762 40 145C38.8875 144.35 38.8875 144.35 37.7524 143.687C29.9803 139.14 22.2294 134.557 14.5 129.938C13.8584 129.555 13.2167 129.173 12.5557 128.779C8.1178 126.118 8.1178 126.118 7 125C6.5625 122.688 6.5625 122.688 7 120C11.973 116 11.973 116 15 116C14.67 115.34 14.34 114.68 14 114C13.8924 111.719 13.8511 109.435 13.8389 107.151C13.8339 106.447 13.8289 105.743 13.8238 105.017C13.8092 102.682 13.8024 100.347 13.7969 98.0119C13.7911 96.39 13.7854 94.7682 13.7796 93.1464C13.7691 89.7426 13.7632 86.3388 13.7598 82.935C13.7543 78.5769 13.7303 74.2192 13.7018 69.8613C13.6831 66.5095 13.678 63.1578 13.6764 59.806C13.6734 58.1996 13.6654 56.5933 13.6522 54.987C13.6352 52.7368 13.6371 50.4874 13.6436 48.2372C13.6399 46.9575 13.6363 45.6778 13.6325 44.3593C14.0299 40.7266 14.8031 38.8872 17 36.0002C19.1172 34.4808 21.1163 33.2018 23.375 31.9377C24.3499 31.3729 24.3499 31.3729 25.3445 30.7968C26.78 29.968 28.2189 29.1451 29.6606 28.3273C32.123 26.9304 34.5756 25.5173 37.0273 24.1017C47.6694 17.9721 58.3555 11.918 69.1377 6.03826C70.7881 5.1183 72.4084 4.14493 74.0234 3.16423C74.8613 2.67697 75.6992 2.1897 76.5625 1.68767C77.5544 1.07472 77.5544 1.07472 78.5664 0.449388C86.3675 -0.990618 94.5831 5.44716 100.875 9.31267Z" fill="#BF3702"/>
<path d="M15.625 116.574C20.0915 118.461 24.1921 120.807 28.375 123.25C29.284 123.775 30.1931 124.3 31.1296 124.841C34.0904 126.554 37.0459 128.276 40 130C41.0118 130.59 42.0235 131.18 43.0659 131.789C45.124 132.99 47.1818 134.191 49.2393 135.393C52.2762 137.166 55.3158 138.935 58.3555 140.703C61.8738 142.751 65.3758 144.822 68.8633 146.922C70.2836 147.761 71.7042 148.599 73.125 149.438C73.7454 149.821 74.3659 150.205 75.0051 150.6C79.1712 153.027 81.3851 153.142 86 152C88.7922 150.678 88.7922 150.678 91.543 148.93C92.6042 148.287 93.6654 147.645 94.7588 146.984C95.3173 146.64 95.8758 146.297 96.4513 145.943C99.433 144.109 102.433 142.307 105.434 140.504C106.052 140.131 106.671 139.759 107.309 139.375C115.135 134.686 123.139 130.319 131.153 125.962C135.628 123.513 139.998 121.114 144.102 118.074C147 116 147 116 149.625 116C152.374 117.158 154.658 118.126 157 120C157.539 122.332 157.539 122.332 157 125C154.856 126.786 152.96 128.068 150.562 129.438C149.858 129.859 149.154 130.28 148.428 130.714C140.971 135.126 133.381 139.319 125.805 143.523C117.115 148.346 108.522 153.323 99.9668 158.382C97.3213 159.94 94.6638 161.474 92 163C91.2706 163.435 90.5411 163.871 89.7896 164.319C86.4211 166.208 84.4479 166.997 80.5156 167.023C76.1831 165.762 72.6274 163.899 68.75 161.625C67.9728 161.181 67.1956 160.737 66.3948 160.279C63.9235 158.864 61.4617 157.432 59 156C57.4002 155.08 55.8 154.161 54.1992 153.242C49.4548 150.514 44.7249 147.762 40 145C39.2583 144.567 38.5166 144.133 37.7524 143.687C29.9803 139.139 22.2294 134.557 14.5 129.938C13.8584 129.555 13.2167 129.173 12.5557 128.779C8.1178 126.118 8.1178 126.118 7 125C6.5625 122.688 6.5625 122.688 7 120C11.6304 115.7 11.6304 115.7 15.625 116.574Z" fill="#F9E5CD"/>
<path d="M464.25 22.6872C471.521 28.6683 475.757 35.8745 478 44.9997C478.518 50.6175 478.469 56.1877 478.391 61.824C478.383 63.4225 478.377 65.021 478.373 66.6196C478.358 70.7905 478.319 74.9608 478.275 79.1315C478.233 83.402 478.215 87.6725 478.195 91.9431C478.153 100.296 478.082 108.648 478 117C473.38 117 468.76 117 464 117C464 102.48 464 87.9597 464 72.9997C452.45 72.9997 440.9 72.9997 429 72.9997C429 68.7097 429 64.4197 429 59.9997C440.55 59.9997 452.1 59.9997 464 59.9997C463.153 48.1029 463.153 48.1029 459 37.9997C458.505 36.5147 458.505 36.5147 458 34.9997C452.991 32.2527 446.11 30.3786 440.457 31.5075C438.253 32.2484 436.134 33.0787 434 33.9997C432.515 34.4947 432.515 34.4947 431 34.9997C429.881 36.646 429.881 36.646 429 38.9997C428.495 40.0381 427.99 41.0764 427.469 42.1462C424.992 48.824 425.517 56.067 425.488 63.0935C425.471 64.6515 425.453 66.2095 425.434 67.7674C425.387 71.8444 425.357 75.9213 425.33 79.9984C425.301 84.1682 425.254 88.3379 425.209 92.5075C425.123 100.672 425.057 108.835 425 117C420.38 117 415.76 117 411 117C410.67 102.48 410.34 87.9597 410 72.9997C407.03 78.2797 404.06 83.5597 401 88.9997C396.43 95.1872 396.43 95.1872 394 97.9997C394.531 98.2911 395.062 98.5824 395.609 98.8825C400.807 101.899 404.645 104.837 406.592 110.817C407.1 113.534 407.112 116.095 407.098 118.859C407.094 119.974 407.091 121.089 407.088 122.238C407.075 123.976 407.075 123.976 407.062 125.75C407.058 126.924 407.053 128.098 407.049 129.308C407.037 132.205 407.019 135.103 407 138C402.71 138 398.42 138 394 138C393.963 136.637 393.925 135.275 393.887 133.871C393.821 132.06 393.755 130.248 393.688 128.437C393.665 127.542 393.642 126.647 393.619 125.724C393.394 120.139 392.806 115.886 390 111C386.604 108.159 382.003 108.556 377.75 108.375C375.193 108.251 372.635 108.127 370 108C370 117.9 370 127.8 370 138C365.71 138 361.42 138 357 138C357 100.38 357 62.7597 357 23.9997C361.29 23.9997 365.58 23.9997 370 23.9997C370 47.4297 370 70.8597 370 94.9997C378.391 94.5924 378.391 94.5924 383 91.9997C384.635 89.8254 384.635 89.8254 386.016 87.2107C386.544 86.2697 387.073 85.3286 387.617 84.3591C388.156 83.3743 388.695 82.3894 389.25 81.3747C389.804 80.3822 390.359 79.3896 390.93 78.3669C392.296 75.9166 393.649 73.4589 395 70.9997C400.28 70.9997 405.56 70.9997 411 70.9997C410.954 69.2505 410.907 67.5012 410.859 65.699C410.822 63.3617 410.785 61.0245 410.75 58.6872C410.7 56.9654 410.7 56.9654 410.648 55.2087C410.521 43.9499 413.127 34.3106 421 25.9997C432.686 14.9184 450.939 13.4178 464.25 22.6872Z" fill="#FE7520"/>
<path d="M90 3.00032C93.7201 4.95343 97.2958 7.11391 100.875 9.31282C107.253 13.1836 113.653 16.9407 120.219 20.4845C125.032 23.108 129.768 25.8587 134.5 28.6253C135.475 29.1848 136.449 29.7442 137.453 30.3206C138.386 30.8672 139.32 31.4138 140.281 31.9769C141.117 32.4624 141.953 32.9479 142.814 33.4481C145.098 35.07 146.456 36.6805 148 39.0003C141.842 43.0262 135.636 46.8027 129.148 50.2699C125.216 52.4314 121.36 54.712 117.5 57.0003C111.07 60.8063 104.589 64.4756 98 68.0003C95.9988 69.0815 93.9988 70.1648 92 71.2503C91.1131 71.7299 90.2262 72.2094 89.3125 72.7034C86.8435 74.0491 86.8435 74.0491 84 76.0003C83.6836 78.481 83.5626 80.7184 83.5676 83.2039C83.5574 83.9455 83.5472 84.6871 83.5367 85.4511C83.5065 87.9077 83.4973 90.3639 83.4883 92.8206C83.4714 94.5217 83.4533 96.2228 83.4339 97.9239C83.3863 102.405 83.3565 106.887 83.3304 111.368C83.3007 115.94 83.2541 120.511 83.209 125.082C83.1228 134.055 83.0555 143.028 83 152C82.01 152 81.02 152 80 152C80.0408 151.079 80.0815 150.158 80.1235 149.209C80.4884 140.473 80.7347 131.742 80.8523 122.998C80.9169 118.503 81.025 114.018 81.2378 109.527C82.9039 90.4068 82.9039 90.4068 76.766 73.0751C71.1475 68.297 64.8081 65.5665 57.9174 63.0896C54.0907 61.6608 50.897 59.78 47.4258 57.6331C45.3881 56.4636 43.3504 55.2944 41.3125 54.1253C32.7857 49.2217 24.3096 44.2653 16 39.0003C17.4859 35.0777 19.5125 33.7852 23.1094 31.7503C24.1637 31.1477 25.218 30.545 26.3042 29.9241C27.4413 29.2893 28.5784 28.6544 29.75 28.0003C30.9264 27.3338 32.1023 26.6664 33.2778 25.9984C41.669 21.2447 50.1252 16.6075 58.6096 12.0225C64.4369 8.87251 70.179 5.62322 75.8555 2.20735C81.3132 -0.864472 84.5451 0.680089 90 3.00032Z" fill="#FCA103"/>
<path d="M15.0004 38C16.1161 38.64 16.1161 38.64 17.2543 39.293C22.8959 42.5234 28.5418 45.7453 34.2074 48.9336C44.5716 54.7669 54.9062 60.6473 65.1879 66.625C66.72 67.5128 66.72 67.5128 68.2831 68.4185C69.2352 68.9739 70.1874 69.5293 71.1683 70.1016C72.0065 70.5896 72.8446 71.0777 73.7081 71.5806C74.4646 72.049 75.221 72.5174 76.0004 73C76.6983 73.3734 77.3962 73.7467 78.1153 74.1314C80.435 76.4308 80.4708 78.0028 80.4981 81.1963C80.4837 81.8962 80.4693 82.5961 80.4545 83.3171C80.4551 84.0588 80.4556 84.8006 80.4562 85.5647C80.4535 88.0163 80.4223 90.4666 80.391 92.918C80.3835 94.6176 80.3778 96.3173 80.3738 98.0169C80.3586 102.49 80.3193 106.963 80.275 111.437C80.2341 116.001 80.2158 120.566 80.1957 125.131C80.1528 134.087 80.0845 143.044 80.0004 152C81.9804 152.495 81.9804 152.495 84.0004 153C81.6079 153.856 80.4037 154.147 77.9801 153.262C77.2714 152.86 76.5626 152.458 75.8324 152.043C75.03 151.595 74.2277 151.147 73.401 150.685C72.5469 150.191 71.6928 149.697 70.8129 149.188C69.9259 148.686 69.039 148.185 68.1251 147.669C65.4082 146.127 62.7029 144.567 60.0004 143C59.2121 142.545 58.4238 142.091 57.6117 141.622C50.3803 137.442 43.2218 133.155 36.1254 128.75C29.8738 124.875 23.5116 120.961 16.7543 118.023C15.0004 117 15.0004 117 14.0004 114C13.9053 111.67 13.8724 109.338 13.871 107.006C13.8692 106.298 13.8675 105.591 13.8657 104.862C13.8613 102.522 13.8642 100.183 13.8676 97.8438C13.8669 96.2185 13.8659 94.5933 13.8647 92.9681C13.8632 89.5619 13.8653 86.1557 13.87 82.7495C13.8757 78.3813 13.8724 74.0132 13.8664 69.645C13.8628 66.289 13.864 62.9331 13.8666 59.5771C13.8672 57.9663 13.8664 56.3556 13.8641 54.7448C13.8615 52.4945 13.8654 50.2444 13.871 47.9941C13.8718 46.713 13.8726 45.4319 13.8734 44.1119C14.0004 41 14.0004 41 15.0004 38Z" fill="#CE3E03"/>
<path d="M215.251 22.7499C222.487 28.7166 226.762 34.7403 229.001 43.9999C229.001 45.9799 229.001 47.9599 229.001 49.9999C233.291 49.9999 237.581 49.9999 242.001 49.9999C242.496 52.4749 242.496 52.4749 243.001 54.9999C243.867 54.2162 244.733 53.4324 245.626 52.6249C251.089 48.1192 256.161 47.7641 263.001 47.9999C263.001 52.2899 263.001 56.5799 263.001 60.9999C261.475 61.2268 259.948 61.4537 258.376 61.6874C253.129 62.7635 250.577 63.9881 247.001 67.9999C244.236 74.0638 243.539 79.1343 243.489 85.7499C243.462 87.098 243.462 87.098 243.435 88.4733C243.381 91.3155 243.347 94.1575 243.313 96.9999C243.28 98.9387 243.246 100.878 243.21 102.816C243.123 107.544 243.063 112.271 243.001 117C234.091 117 225.181 117 216.001 117C216.001 102.48 216.001 87.9599 216.001 72.9999C204.121 72.9999 192.241 72.9999 180.001 72.9999C180.001 68.7099 180.001 64.4199 180.001 59.9999C191.881 59.9999 203.761 59.9999 216.001 59.9999C214.552 46.2706 214.552 46.2706 208.001 34.9999C203.062 31.5974 197.559 30.387 191.665 31.4023C186.139 32.9537 183.172 35.057 180.001 39.9999C176.183 47.6679 176.524 55.4977 176.489 63.8749C176.472 65.4105 176.454 66.9461 176.435 68.4816C176.387 72.4994 176.358 76.5171 176.331 80.535C176.301 84.6445 176.255 88.7538 176.21 92.8632C176.124 100.909 176.058 108.954 176.001 117C171.381 117 166.761 117 162.001 117C161.933 108.046 161.878 99.0918 161.845 90.1374C161.83 85.9787 161.809 81.8202 161.775 77.6615C161.742 73.6415 161.724 69.6216 161.716 65.6014C161.711 64.0746 161.7 62.5477 161.684 61.0209C161.552 48.1791 162.994 37.4409 171.001 26.9999C182.865 15.5461 201.521 12.9877 215.251 22.7499Z" fill="#FC7420"/>
<path d="M345.875 33.6248C351.057 38.5077 354.728 46.0451 355.121 53.1892C355.118 53.9797 355.116 54.7703 355.114 55.5848C355.114 56.9357 355.114 56.9357 355.114 58.314C355.108 59.2776 355.103 60.2413 355.098 61.2342C355.097 62.2274 355.095 63.2205 355.094 64.2438C355.088 67.4125 355.076 70.5811 355.063 73.7498C355.058 75.8996 355.053 78.0493 355.049 80.199C355.038 85.466 355.021 90.7329 355 95.9998C350.71 95.9998 346.42 95.9998 342 95.9998C341.991 94.7694 341.982 93.539 341.972 92.2713C341.932 87.6788 341.866 83.087 341.793 78.4949C341.765 76.5126 341.743 74.5301 341.729 72.5477C341.708 69.6874 341.661 66.8284 341.61 63.9686C341.608 63.0912 341.607 62.2137 341.606 61.3097C341.481 55.9646 340.55 52.2345 337.854 47.5947C337 45.9998 337 45.9998 337 43.9998C335.825 43.5358 335.825 43.5358 334.625 43.0623C332 41.9998 332 41.9998 330 40.9998C324.864 40.5645 320.991 40.6224 316.648 43.5974C312.835 46.8424 311.234 51.0853 310.644 55.9199C310.509 59.386 310.499 62.832 310.532 66.3006C310.525 67.5728 310.517 68.8449 310.51 70.1556C310.485 74.8908 310.494 79.6254 310.505 84.3607C310.515 89.0075 310.495 93.6537 310.469 98.3006C310.48 99.5093 310.492 100.718 310.503 101.963C310.446 111.723 308.764 121.157 301.844 128.5C294.132 134.774 285.7 136.726 276 136C267.907 134.764 262.357 131.144 257 125C253.837 120.089 251.871 115.199 251.887 109.345C251.887 108.404 251.887 107.463 251.887 106.494C251.892 105.481 251.897 104.469 251.903 103.426C251.904 102.387 251.906 101.348 251.907 100.277C251.913 96.9555 251.925 93.634 251.938 90.3123C251.943 88.0617 251.947 85.811 251.952 83.5604C251.963 78.0402 251.98 72.52 252 66.9998C256.29 66.9998 260.58 66.9998 265 66.9998C265.01 68.2605 265.019 69.5212 265.029 70.8201C265.069 75.5244 265.135 80.2281 265.208 84.9319C265.236 86.9628 265.257 88.9937 265.271 91.0247C265.293 93.9545 265.34 96.8829 265.391 99.8123C265.392 100.712 265.393 101.611 265.395 102.537C265.529 108.41 266.53 113.151 270 118C273.417 120.936 276.617 122.225 281.125 122.437C285.021 121.998 286.855 121.22 290 119C290.66 119 291.32 119 292 119C292.433 117.917 292.433 117.917 292.875 116.812C293.564 115.091 294.283 113.381 295.055 111.695C296.121 108.655 296.252 106.284 296.256 103.067C296.266 101.309 296.266 101.309 296.277 99.5162C296.276 98.2578 296.275 96.9995 296.274 95.7029C296.289 93.7111 296.304 91.7193 296.32 89.7275C296.358 84.8314 296.375 79.9352 296.381 75.0389C296.385 72.2888 296.4 69.5391 296.426 66.7891C296.449 64.2059 296.456 61.6225 296.446 59.0392C296.562 48.6438 298.967 41.3787 306.071 33.7264C317.164 23.8004 334.394 24.8578 345.875 33.6248Z" fill="#1E1D1D"/>
<path d="M357 24C361.29 24 365.58 24 370 24C370 47.43 370 70.86 370 95C378.391 94.5926 378.391 94.5926 383 92C384.635 89.8257 384.635 89.8257 386.016 87.2109C386.808 85.7994 386.808 85.7994 387.617 84.3594C388.156 83.3745 388.695 82.3897 389.25 81.375C389.804 80.3824 390.359 79.3898 390.93 78.3672C392.296 75.9169 393.649 73.4591 395 71C400.28 71 405.56 71 411 71C400.434 91.566 400.434 91.566 394 98C394.531 98.2913 395.062 98.5827 395.609 98.8828C400.807 101.899 404.645 104.837 406.592 110.817C407.1 113.534 407.112 116.095 407.098 118.859C407.094 119.974 407.091 121.089 407.088 122.238C407.075 123.977 407.075 123.977 407.062 125.75C407.058 126.924 407.053 128.099 407.049 129.309C407.037 132.206 407.019 135.103 407 138C402.71 138 398.42 138 394 138C393.963 136.637 393.925 135.275 393.887 133.871C393.821 132.06 393.755 130.249 393.688 128.438C393.665 127.542 393.642 126.647 393.619 125.725C393.394 120.14 392.806 115.886 390 111C386.604 108.159 382.003 108.556 377.75 108.375C375.193 108.251 372.635 108.127 370 108C370 117.9 370 127.8 370 138C365.71 138 361.42 138 357 138C357 100.38 357 62.76 357 24Z" fill="#1D1C1C"/>
<path d="M90 3.00032C93.7201 4.95343 97.2958 7.11391 100.875 9.31282C107.253 13.1836 113.653 16.9407 120.219 20.4845C125.032 23.108 129.768 25.8587 134.5 28.6253C135.475 29.1848 136.449 29.7442 137.453 30.3206C138.386 30.8672 139.32 31.4138 140.281 31.9769C141.117 32.4624 141.953 32.9479 142.814 33.4481C145.098 35.07 146.456 36.6805 148 39.0003C141.842 43.0262 135.636 46.8027 129.148 50.2699C125.216 52.4314 121.36 54.712 117.5 57.0003C111.07 60.8063 104.589 64.4756 98 68.0003C95.9988 69.0815 93.9988 70.1648 92 71.2503C91.1131 71.7299 90.2262 72.2094 89.3125 72.7034C86.8435 74.0491 86.8435 74.0491 84 76.0003C83.6836 78.481 83.5626 80.7184 83.5676 83.2039C83.5574 83.9455 83.5472 84.6871 83.5367 85.4511C83.5065 87.9077 83.4973 90.3639 83.4883 92.8206C83.4714 94.5217 83.4533 96.2228 83.4339 97.9239C83.3863 102.405 83.3565 106.887 83.3304 111.368C83.3007 115.94 83.2541 120.511 83.209 125.082C83.1228 134.055 83.0555 143.028 83 152C82.01 152 81.02 152 80 152C80.0408 151.079 80.0815 150.158 80.1235 149.209C80.4884 140.473 80.7347 131.742 80.8523 122.998C80.9169 118.503 81.025 114.018 81.2378 109.527C82.9039 90.4068 82.9039 90.4068 76.766 73.0751C71.1475 68.297 64.8081 65.5665 57.9174 63.0896C54.0907 61.6608 50.897 59.78 47.4258 57.6331C45.3881 56.4636 43.3504 55.2944 41.3125 54.1253C32.7857 49.2217 24.3096 44.2653 16 39.0003C17.4859 35.0777 19.5125 33.7852 23.1094 31.7503C24.1637 31.1477 25.218 30.545 26.3042 29.9241C27.4413 29.2893 28.5784 28.6544 29.75 28.0003C30.9264 27.3338 32.1023 26.6664 33.2778 25.9984C41.669 21.2447 50.1252 16.6075 58.6096 12.0225C64.4369 8.87251 70.179 5.62322 75.8555 2.20735C81.3132 -0.864472 84.5451 0.680089 90 3.00032ZM56 19.0003C55.1428 19.4579 54.2855 19.9156 53.4023 20.387C48.0973 23.5355 44.2746 27.1826 42 33.0003C41.1197 37.1815 41.6322 40.2648 43.5625 44.1253C51.6507 53.6652 61.5254 58.8005 74 60.0003C87.8567 61.0842 102.863 58.9399 114 50.0003C117.925 46.1393 120.753 43.0083 121.438 37.4378C121.326 31.8425 118.729 28.0198 115 24.0003C111.866 21.4943 108.621 19.7121 105 18.0003C104.185 17.5865 103.371 17.1727 102.531 16.7464C88.6586 10.8913 69.1145 11.6149 56 19.0003Z" fill="#FC9205"/>
<path d="M42 61.9999C43.7075 63.2805 45.3737 64.6176 47 65.9999C48.1344 66.268 49.2687 66.5361 50.4375 66.8124C59.1475 69.7157 63.8819 80.2831 68 87.9999C70.7769 94.4572 71.3834 101.245 71.9375 108.187C72.0428 109.31 72.0428 109.31 72.1501 110.456C72.4785 116.167 71.1361 120.218 68 125C66 127 66 127 63.375 127.125C62.5913 127.084 61.8075 127.042 61 127C61 127.66 61 128.32 61 129C56.689 128.746 54.5029 128.415 51.125 125.625C49 123 49 123 48 120C46.7831 120.082 45.5662 120.165 44.3125 120.25C41.1367 120.239 40.0844 120.05 37.25 118.375C29.0331 109.701 22.2105 97.2225 22.1875 85.1249C22.4004 77.5067 24.3205 70.9745 29.5586 65.3163C33.3873 61.8196 36.8837 61.4613 42 61.9999Z" fill="#CD3F02"/>
<path d="M123 62C124.32 62.33 125.64 62.66 127 63C126.67 66.96 126.34 70.92 126 75C128.475 75.495 128.475 75.495 131 76C135.347 80.044 136.621 83.1953 137.348 89.0469C137.563 89.6914 137.778 90.3359 138 91C138.664 91.2604 139.328 91.5208 140.012 91.7891C140.668 92.1887 141.324 92.5883 142 93C142.467 95.6648 142.696 97.9507 142.75 100.625C142.78 101.331 142.809 102.038 142.84 102.766C142.911 104.51 142.958 106.255 143 108C142.01 108.66 141.02 109.32 140 110C139 109 139 109 138.902 105.84C138.914 104.552 138.926 103.264 138.938 101.938C138.947 100.647 138.956 99.3568 138.965 98.0273C138.976 97.0283 138.988 96.0293 139 95C138.01 94.67 137.02 94.34 136 94C135.89 94.5917 135.781 95.1834 135.668 95.793C135.509 96.5832 135.351 97.3734 135.188 98.1875C135.037 98.9648 134.886 99.7421 134.73 100.543C134 103 134 103 132.438 105.344C130.554 108.824 130.702 111.383 130.812 115.312C130.84 116.567 130.867 117.821 130.895 119.113C130.947 120.542 130.947 120.542 131 122C128.525 122.495 128.525 122.495 126 123C126.495 118.05 126.495 118.05 127 113C126.381 113.66 125.762 114.32 125.125 115C123 117 123 117 121 117C120.897 117.887 120.794 118.774 120.688 119.688C119.988 123.057 118.913 125.173 117 128C116 125 116 125 117.438 121.812C117.953 120.884 118.469 119.956 119 119C118.443 119.33 117.886 119.66 117.312 120C114.688 121.135 112.828 121.075 110 121C110.126 122.156 110.126 122.156 110.254 123.336C110.356 124.339 110.458 125.342 110.562 126.375C110.667 127.373 110.771 128.37 110.879 129.398C111 132 111 132 110 134C109.01 134 108.02 134 107 134C107 129.05 107 124.1 107 119C105.68 118.34 104.36 117.68 103 117C100.424 119.576 100.753 121.494 100.414 124.984C99.8038 127.955 97.8981 129.687 96 132C95.1978 135.69 95.1978 135.69 95 139C93.02 139.495 93.02 139.495 91 140C90.2891 138.266 90.2891 138.266 90 136C91.3984 133.922 91.3984 133.922 93.375 131.75C95.9152 128.704 97.4228 126.743 97.6875 122.75C98 119 98 119 100.062 116.625C102.989 112.661 102.333 108.769 102 104C100.989 103.897 99.9787 103.794 98.9375 103.688C94.7878 102.963 91.7864 101.777 88 100C88.33 98.35 88.66 96.7 89 95C90.98 94.505 90.98 94.505 93 94C93.33 95.65 93.66 97.3 94 99C96.97 99.99 99.94 100.98 103 102C101.946 97.8761 101.946 97.8761 99.4375 94.5938C97.4995 92.4451 97.6889 91.1552 97.8125 88.3125C97.8396 87.5043 97.8666 86.696 97.8945 85.8633C97.9293 85.2484 97.9641 84.6335 98 84C97.34 84 96.68 84 96 84C96 82.02 96 80.04 96 78C97.32 77.67 98.64 77.34 100 77C100.039 78.572 100.039 78.572 100.078 80.1758C100.134 81.5547 100.192 82.9336 100.25 84.3125C100.264 85.0028 100.278 85.6931 100.293 86.4043C100.499 90.6843 100.499 90.6843 103.047 93.9805C103.691 94.3169 104.336 94.6534 105 95C105.041 94.34 105.082 93.68 105.125 93C107.163 86.013 113.019 79.9917 119 76C121.938 75.125 121.938 75.125 124 75C123.649 73.9688 123.299 72.9375 122.938 71.875C122.005 68.0201 122.074 65.7983 123 62Z" fill="#F1B10B"/>
<path d="M263 47.9998C263 52.2898 263 56.5798 263 60.9998C261.474 61.2267 259.947 61.4536 258.375 61.6873C253.128 62.7635 250.576 63.988 247 67.9998C244.235 74.0637 243.538 79.1343 243.488 85.7498C243.47 86.6486 243.452 87.5473 243.434 88.4732C243.38 91.3154 243.346 94.1574 243.312 96.9998C243.279 98.9387 243.245 100.877 243.209 102.816C243.124 107.544 243.057 112.272 243 117C238.71 117 234.42 117 230 117C230 94.8898 230 72.7798 230 49.9998C233.96 49.9998 237.92 49.9998 242 49.9998C242.33 51.6498 242.66 53.2998 243 54.9998C243.866 54.2161 244.733 53.4323 245.625 52.6248C251.088 48.1192 256.161 47.764 263 47.9998Z" fill="#1D1B1B"/>
<path d="M49.0004 70C53.8016 70.813 53.8016 70.813 55.5902 72.4961C57.0854 74.6501 58.5675 76.8037 60.0004 79C60.5314 79.7928 61.0625 80.5855 61.6097 81.4023C67.2436 90.2297 69.2435 97.8594 69.3754 108.25C69.3964 109.403 69.3964 109.403 69.4178 110.58C69.3768 115.421 68.727 118.841 66.0004 123C62.6689 124.913 60.2265 125.971 56.3754 126.062C52.8835 124.5 50.7727 122.329 49.0004 119C48.3212 115.222 48.4172 111.523 48.5121 107.695C48.5191 106.616 48.5262 105.537 48.5335 104.425C48.5614 100.991 48.6242 97.5586 48.6879 94.125C48.7129 91.7917 48.7358 89.4584 48.7562 87.125C48.8112 81.4161 48.8948 75.7082 49.0004 70Z" fill="#CD3F02"/>
<path d="M42 61.9999C43.7075 63.2805 45.3737 64.6176 47 65.9999C48.1344 66.268 49.2687 66.5361 50.4375 66.8124C59.1475 69.7157 63.8819 80.2831 68 87.9999C70.7769 94.4572 71.3834 101.245 71.9375 108.187C72.0428 109.31 72.0428 109.31 72.1501 110.456C72.4785 116.167 71.1361 120.218 68 125C66 127 66 127 63.375 127.125C62.5913 127.084 61.8075 127.042 61 127C61 127.66 61 128.32 61 129C56.689 128.746 54.5029 128.415 51.125 125.625C49 123 49 123 48 120C46.7831 120.082 45.5662 120.165 44.3125 120.25C41.1367 120.239 40.0844 120.05 37.25 118.375C29.0331 109.701 22.2105 97.2225 22.1875 85.1249C22.4004 77.5067 24.3205 70.9745 29.5586 65.3163C33.3873 61.8196 36.8837 61.4613 42 61.9999ZM29.25 69.3124C27.4944 71.6824 26.8366 74.1912 26 76.9999C25.67 77.6599 25.34 78.3199 25 78.9999C23.3964 92.9217 27.4887 101.905 35.5625 113.312C37.917 116.177 38.7492 116.916 42.375 118.125C44.9257 118.298 44.9257 118.298 46 117C46.2774 113.883 46.2318 110.752 46.25 107.625C46.2706 106.748 46.2912 105.872 46.3125 104.969C46.3177 104.126 46.3228 103.283 46.3281 102.414C46.3375 101.64 46.3468 100.866 46.3564 100.069C45.9148 97.5052 44.9705 96.6303 43 94.9999C43.99 95.3299 44.98 95.6599 46 95.9999C46.099 92.0673 46.1715 88.1353 46.2197 84.2018C46.2497 82.2065 46.3005 80.2115 46.3516 78.2167C46.3709 76.3363 46.3709 76.3363 46.3906 74.4178C46.422 72.6818 46.422 72.6818 46.4541 70.9108C46.2789 67.9102 46.2789 67.9102 44.124 66.1222C38.6159 63.2117 33.897 65.8271 29.25 69.3124ZM49 69.9999C48.8475 76.8498 48.7426 83.6992 48.6704 90.5504C48.6403 92.8794 48.5994 95.2082 48.5474 97.5367C48.4743 100.891 48.4405 104.243 48.4141 107.598C48.3831 108.633 48.3521 109.669 48.3202 110.736C48.3178 115.947 48.5835 119.159 52.0366 123.213C52.9997 124.167 53.9794 125.107 55 126C58.8325 125.324 62.4511 124.62 66 123C69.1627 118.132 69.5142 113.994 69.4375 108.375C69.4278 107.577 69.418 106.78 69.408 105.958C69.0038 92.3851 62.8285 81.5049 54.4727 71.0975C52.7716 69.6015 52.7716 69.6015 49 69.9999Z" fill="#F7BA09"/>
<path d="M80.689 13.5001C82.2747 13.5076 82.2747 13.5076 83.8924 13.5152C95.7474 13.7786 106.979 16.8756 116.002 25.0001C119.233 28.6661 121.263 32.1882 121.564 37.1251C120.481 44.5885 116.115 48.0068 110.416 52.3868C98.0914 60.6229 82.7039 61.369 68.3765 59.3751C58.9112 57.3787 49.9363 52.7829 44.0015 45.0001C41.7176 41.0616 41.1477 37.4745 42.0015 33.0001C45.6444 24.0165 53.4159 19.8015 61.9827 16.1573C68.209 13.8063 74.0748 13.4591 80.689 13.5001ZM47.232 28.8204C45.0071 32.7616 44.9604 36.6585 46.0015 41.0001C48.9623 47.1746 54.0468 49.9892 60.0015 53.0001C63.9566 54.3265 67.9043 55.237 72.0015 56.0001C72.8729 56.1832 73.7443 56.3662 74.6421 56.5548C85.5565 58.6148 99.512 55.7321 109.002 50.0001C112.948 47.1792 116.192 44.6057 118.002 40.0001C118.523 35.7995 117.908 32.319 115.498 28.8126C106.359 19.0643 95.2319 16.2067 82.3345 15.5131C69.2835 15.1125 56.203 18.6414 47.232 28.8204Z" fill="#FCC404"/>
<path d="M123 62C124.32 62.33 125.64 62.66 127 63C126.67 66.96 126.34 70.92 126 75C127.32 75 128.64 75 130 75C130 75.66 130 76.32 130 77C127.36 77 124.72 77 122 77C122.495 83.435 122.495 83.435 123 90C123.66 90 124.32 90 125 90C125 87.03 125 84.06 125 81C125.66 81 126.32 81 127 81C127.812 84.1875 127.812 84.1875 128 88C125.688 90.9375 125.688 90.9375 123 93C122.34 93 121.68 93 121 93C121 96.96 121 100.92 121 105C121.66 105 122.32 105 123 105C123.014 104.397 123.028 103.793 123.043 103.172C123.441 96.5016 123.441 96.5016 126.438 93.8125C127.283 93.2144 128.129 92.6162 129 92C130.348 88.8787 130.348 88.8787 131 86C131.66 86 132.32 86 133 86C132.683 89.4816 131.721 91.5498 129.625 94.25C127.003 97.6809 125.819 101.042 124.676 105.18C124 107 124 107 122 108C122 110.64 122 113.28 122 116C121.34 116 120.68 116 120 116C120 103.79 120 91.58 120 79C112.51 84.254 112.51 84.254 108.562 91.125C108.089 92.1382 107.616 93.1514 107.129 94.1953C104.571 100.551 104.183 106.23 106.125 112.812C108.304 116.517 110.036 117.502 114 119C112.02 119.495 112.02 119.495 110 120C110.126 121.265 110.126 121.265 110.254 122.555C110.356 123.65 110.458 124.746 110.562 125.875C110.667 126.966 110.771 128.056 110.879 129.18C111 132 111 132 110 134C109.01 134 108.02 134 107 134C107 129.05 107 124.1 107 119C105.68 118.34 104.36 117.68 103 117C100.424 119.576 100.753 121.494 100.414 124.984C99.8038 127.955 97.8981 129.687 96 132C95.1978 135.69 95.1978 135.69 95 139C93.02 139.495 93.02 139.495 91 140C90.2891 138.266 90.2891 138.266 90 136C91.3984 133.922 91.3984 133.922 93.375 131.75C95.9152 128.704 97.4228 126.743 97.6875 122.75C98 119 98 119 100.062 116.625C102.989 112.661 102.333 108.769 102 104C100.989 103.897 99.9787 103.794 98.9375 103.688C94.7878 102.963 91.7864 101.777 88 100C88.33 98.35 88.66 96.7 89 95C90.98 94.505 90.98 94.505 93 94C93.33 95.65 93.66 97.3 94 99C96.97 99.99 99.94 100.98 103 102C101.946 97.8761 101.946 97.8761 99.4375 94.5938C97.4995 92.4451 97.6889 91.1552 97.8125 88.3125C97.8396 87.5043 97.8666 86.696 97.8945 85.8633C97.9293 85.2484 97.9641 84.6335 98 84C97.34 84 96.68 84 96 84C96 82.02 96 80.04 96 78C97.32 77.67 98.64 77.34 100 77C100.039 78.572 100.039 78.572 100.078 80.1758C100.134 81.5547 100.192 82.9336 100.25 84.3125C100.264 85.0028 100.278 85.6931 100.293 86.4043C100.499 90.6843 100.499 90.6843 103.047 93.9805C103.691 94.3169 104.336 94.6534 105 95C105.041 94.34 105.082 93.68 105.125 93C107.163 86.013 113.019 79.9917 119 76C121.938 75.125 121.938 75.125 124 75C123.649 73.9688 123.299 72.9375 122.938 71.875C122.005 68.0201 122.074 65.7983 123 62Z" fill="#F4B60A"/>
<path d="M98.6955 22.7224C103.649 25.468 107.838 28.2557 111 32.9997C111.556 37.8396 111.611 39.9619 109.125 44.1872C104.712 48.8284 97.0862 52.6865 90.6911 53.1767C87.7524 53.2434 84.8146 53.2846 81.8752 53.3122C80.8672 53.3412 79.8591 53.3702 78.8205 53.4001C69.1781 53.4813 61.5997 50.6753 54.4846 44.0583C52.1816 40.8644 52.07 38.2105 52.426 34.3591C53.3416 30.597 54.9581 28.2611 58.0002 25.9997C70.1892 18.8571 85.4194 16.9115 98.6955 22.7224ZM63.0002 25.9997C62.3106 26.4354 61.6209 26.8711 60.9104 27.32C58.2625 29.2391 56.3807 30.7722 55.3947 33.9528C55.1097 37.9903 55.9038 39.8494 58.1252 43.3122C64.5895 49.3549 72.3101 50.9254 80.9924 51.0388C89.0297 50.6004 98.1703 49.1989 104.125 43.3122C105.053 42.1675 105.053 42.1675 106 40.9997C106.495 40.5047 106.495 40.5047 107 39.9997C107.418 36.9215 107.663 34.964 107 31.9997C102.674 26.3726 95.8935 23.0821 89.0002 21.9997C75.3822 21.0593 75.3822 21.0593 63.0002 25.9997Z" fill="#FDC504"/>
<path d="M119.001 79C119.026 84.2511 119.044 89.5021 119.056 94.7532C119.061 96.5409 119.068 98.3287 119.077 100.116C119.089 102.681 119.094 105.245 119.099 107.809C119.104 108.613 119.109 109.417 119.114 110.245C119.115 112.164 119.063 114.082 119.001 116C118.001 117 118.001 117 114.939 117.062C113.969 117.042 113 117.021 112.001 117C112.001 116.34 112.001 115.68 112.001 115C112.661 115 113.321 115 114.001 115C114.104 114.423 114.207 113.845 114.314 113.25C115.099 110.68 116.306 109.063 118.001 107C115.483 110.123 114.275 110.945 110.251 111.75C109.179 111.833 108.106 111.915 107.001 112C106.671 112.99 106.341 113.98 106.001 115C102.737 106.841 103.608 100.653 106.728 92.6875C108.651 88.6292 113.614 79 119.001 79Z" fill="#BF3A02"/>
<path d="M90 3.00032C93.7201 4.95343 97.2958 7.11391 100.875 9.31282C107.253 13.1836 113.653 16.9407 120.219 20.4845C125.032 23.108 129.768 25.8587 134.5 28.6253C135.475 29.1848 136.449 29.7442 137.453 30.3206C138.386 30.8672 139.32 31.4138 140.281 31.9769C141.117 32.4624 141.953 32.9479 142.814 33.4481C145.098 35.07 146.456 36.6805 148 39.0003C147.01 39.4953 147.01 39.4953 146 40.0003C145.471 39.4184 144.942 38.8365 144.396 38.2369C141.669 35.6914 138.911 34.0442 135.66 32.2152C135.056 31.8728 134.452 31.5304 133.83 31.1777C131.911 30.0916 129.987 29.0145 128.062 27.9378C126.143 26.8555 124.224 25.7715 122.306 24.6872C120.564 23.704 118.819 22.725 117.074 21.7462C115.113 20.6321 113.166 19.4908 111.24 18.315C109.119 17.07 107.403 16.4454 105 16.0003C105 15.3403 105 14.6803 105 14.0003C104.319 13.7541 103.639 13.5079 102.938 13.2542C98.7987 11.4875 95.0166 9.15512 91.1719 6.8343C86.3757 3.94463 86.3757 3.94463 81 3.00032C78.187 3.96424 75.6209 5.29274 73 6.68782C72.3013 7.04038 71.6027 7.39294 70.8828 7.75618C67.8331 9.32994 65.1517 10.8783 62.4688 13.0355C59.3876 15.4877 56.0374 17.0784 52.5 18.7503C46.0021 21.904 39.8963 25.3781 33.7891 29.2425C31.4926 30.6899 29.1844 32.0576 26.8125 33.3753C23.9746 34.8533 23.9746 34.8533 22 37.0003C20.0164 37.7144 18.0168 38.3865 16 39.0003C17.4859 35.0777 19.5125 33.7852 23.1094 31.7503C24.1637 31.1477 25.218 30.545 26.3042 29.9241C27.4413 29.2893 28.5784 28.6544 29.75 28.0003C30.9264 27.3338 32.1023 26.6664 33.2778 25.9984C41.669 21.2447 50.1252 16.6075 58.6096 12.0225C64.4369 8.87251 70.179 5.62322 75.8555 2.20735C81.3132 -0.864472 84.5451 0.680089 90 3.00032Z" fill="#F57F17"/>
<path d="M122 77.9998C126.014 77.6063 128.374 77.6535 131.938 79.6248C135.227 85.0075 134.718 90.8441 134 96.9998C133.34 97.9898 132.68 98.9798 132 99.9998C131.67 99.6698 131.34 99.3398 131 98.9998C130.979 99.9898 130.959 100.98 130.938 102C130.251 107.164 126.665 110.541 123 114C122.67 114 122.34 114 122 114C122 111.69 122 109.38 122 107C122.66 107 123.32 107 124 107C124.206 105.7 124.412 104.401 124.625 103.062C125.667 98.2486 127.772 94.8848 130.66 90.9451C132.174 88.9392 132.174 88.9392 133 85.9998C132.34 85.9998 131.68 85.9998 131 85.9998C130.938 86.9073 130.876 87.8148 130.812 88.7498C130 91.9998 130 91.9998 127.438 93.9998C126.633 94.6598 125.829 95.3198 125 95.9998C124.75 99.0416 124.75 99.0416 125 102C124.34 102.99 123.68 103.98 123 105C122.34 105 121.68 105 121 105C120.865 103.064 120.768 101.126 120.688 99.1873C120.629 98.1084 120.571 97.0294 120.512 95.9178C121 92.9998 121 92.9998 123.469 91.2303C124.304 90.8242 125.139 90.4182 126 89.9998C127.269 87.0725 127.088 84.1595 127 80.9998C126.34 80.9998 125.68 80.9998 125 80.9998C125 83.9698 125 86.9398 125 89.9998C124.01 90.3298 123.02 90.6598 122 90.9998C122 86.7098 122 82.4198 122 77.9998Z" fill="#BF3C03"/>
<path d="M44 65.9998C46 67.9998 46 67.9998 46.2271 70.7972C46.2166 71.9598 46.2061 73.1223 46.1953 74.3201C46.1889 75.577 46.1824 76.8338 46.1758 78.1287C46.159 79.4474 46.1423 80.7662 46.125 82.1248C46.115 83.4647 46.1058 84.8045 46.0977 86.1444C46.074 89.4297 46.0411 92.7147 46 95.9998C43.5 94.6873 43.5 94.6873 41 92.9998C41 92.0098 41 91.0198 41 89.9998C41.66 89.9998 42.32 89.9998 43 89.9998C42.2111 86.0555 40.8754 82.5567 39 78.9998C37.0325 77.9374 35.0341 76.9285 33 75.9998C32.125 73.8123 32.125 73.8123 32 71.9998C31.01 72.3298 30.02 72.6598 29 72.9998C29.1875 71.1873 29.1875 71.1873 30 68.9998C35.1712 65.4197 37.7716 64.7764 44 65.9998Z" fill="#CB3D02"/>
<path d="M91.6949 26.7187C95.7706 28.6403 98.73 31.1226 101 34.9999C101.687 37.4374 101.687 37.4374 101 39.9999C97.2208 44.2523 93.7202 46.6374 88.0201 47.1928C70.5716 47.8728 70.5716 47.8728 63.9996 41.9999C62.3606 38.7219 62.4563 36.6217 62.9996 32.9999C70.6502 25.1576 81.3425 23.958 91.6949 26.7187ZM67.0621 32.3749C65.8516 34.0255 65.8516 34.0255 65.4371 36.3749C66.2958 40.3822 68.745 41.7025 71.9996 43.9999C78.3015 46.1005 85.6187 46.0893 91.6246 43.1249C94.9285 41.2188 94.9285 41.2188 96.9996 38.9999C97.6668 36.0855 97.6668 36.0855 96.9996 32.9999C88.386 25.7567 76.1039 25.9581 67.0621 32.3749Z" fill="#FDCB05"/>
<path d="M109.664 20.3869C114.901 23.4999 118.809 27.2221 121 33.0002C121.365 35.8167 121.255 38.1452 121 41.0002C118.406 38.6973 117.929 37.7758 116.812 34.2502C114.516 27.7431 109.004 23.9194 103.125 20.6877C92.1449 15.7772 76.9014 14.4889 65.4258 18.3557C59.8273 20.574 55.0024 22.7825 50.8008 27.1799C48.1026 29.8969 47.4945 30.3803 44 31.0002C47.7815 21.7184 57.0576 18.5656 65.6602 14.8518C80.5032 11.0672 96.3034 13.4323 109.664 20.3869Z" fill="#FDB405"/>
<path d="M80 77C80.99 77 81.98 77 83 77C83 101.75 83 126.5 83 152C82.01 152 81.02 152 80 152C80 127.25 80 102.5 80 77Z" fill="#F77008"/>
<path d="M368 2.00012C370.551 4.22177 370.933 5.60841 371.5 8.93761C370.818 13.1142 369.37 14.5093 366 17.0001C362.622 17.5517 360.786 17.3615 357.688 15.9376C355.172 13.0493 355.065 10.7767 355 7.00011C356.25 4.12511 356.25 4.12512 358 2.00012C361.795 0.735181 364.124 1.10023 368 2.00012Z" fill="#1D1C1D"/>
<path d="M46 69C46.99 69.33 47.98 69.66 49 70C49.0014 70.6006 49.0029 71.2011 49.0043 71.8199C49.024 78.0822 49.0784 84.3435 49.1526 90.6055C49.1758 92.941 49.1902 95.2767 49.1956 97.6123C49.2049 100.974 49.2459 104.334 49.293 107.695C49.289 108.736 49.2851 109.777 49.2811 110.849C49.405 117.214 49.405 117.214 52.3677 122.681C54.778 125.232 54.778 125.232 57.8242 125.402C59.2415 125.172 59.2415 125.172 60.6875 124.938C62.1164 124.734 62.1164 124.734 63.5742 124.527C65.9941 124.106 65.9941 124.106 68 123C67.34 124.32 66.68 125.64 66 127C64.35 127 62.7 127 61 127C61 127.66 61 128.32 61 129C56.689 128.746 54.5029 128.415 51.125 125.625C49 123 49 123 48 120C45.36 120 42.72 120 40 120C40 119.34 40 118.68 40 118C42.475 117.505 42.475 117.505 45 117C45.33 110.73 45.66 104.46 46 98C44.68 97.34 43.36 96.68 42 96C41.34 95.01 40.68 94.02 40 93C42.475 93.99 42.475 93.99 45 95C45.33 86.42 45.66 77.84 46 69Z" fill="#EDA60C"/>
<path d="M112 84C112.66 84.66 113.32 85.32 114 86C114.99 85.67 115.98 85.34 117 85C116.67 87.64 116.34 90.28 116 93C116.66 93.33 117.32 93.66 118 94C117.25 101.75 117.25 101.75 115 104C113.012 104.398 111.011 104.738 109 105C108.67 103.35 108.34 101.7 108 100C107.01 100.33 106.02 100.66 105 101C105.444 95.3775 107.902 88.098 112 84Z" fill="#C23F03"/>
<path d="M149 39C149 64.41 149 89.82 149 116C148.34 116 147.68 116 147 116C147 91.25 147 66.5 147 41C146.34 40.67 145.68 40.34 145 40C147 39 147 39 149 39Z" fill="#BE3F11"/>
<path d="M119 79C119.33 79 119.66 79 120 79C120 91.21 120 103.42 120 116C121.416 114.816 121.416 114.816 121.062 111.438C121.042 110.303 121.021 109.169 121 108C121.33 108 121.66 108 122 108C122.33 109.65 122.66 111.3 123 113C123.99 112.34 124.98 111.68 126 111C126 114 126 114 124.625 115.688C123 117 123 117 121 117C120.897 117.887 120.794 118.774 120.688 119.688C119.988 123.057 118.913 125.173 117 128C116 125 116 125 117.438 121.812C117.953 120.884 118.469 119.956 119 119C118.165 119.495 118.165 119.495 117.312 120C114.697 121.131 112.819 121.157 110 121C110 120.01 110 119.02 110 118C109.01 117.34 108.02 116.68 107 116C107 114.68 107 113.36 107 112C108.114 111.732 109.227 111.464 110.375 111.188C114.218 110.342 114.218 110.342 116 107C116.66 107 117.32 107 118 107C116.667 109.667 115.333 112.333 114 115C113.34 115 112.68 115 112 115C112 115.66 112 116.32 112 117C114.97 116.505 114.97 116.505 118 116C118.33 103.79 118.66 91.58 119 79Z" fill="#EDA80B"/>
<path d="M28 71C29.875 71.25 29.875 71.25 32 72C32.3094 72.6394 32.6188 73.2788 32.9375 73.9375C34.3938 76.7644 36.0746 76.9761 39 78C41.0978 80.0978 41.6509 81.3799 42.625 84.125C43.0156 85.2117 43.0156 85.2117 43.4141 86.3203C43.7041 87.1518 43.7041 87.1518 44 88C42.125 87.375 42.125 87.375 40 86C38.75 82.875 38.75 82.875 38 80C36.0151 80.2668 36.0151 80.2668 34 81C33.67 81.99 33.34 82.98 33 84C33.66 84 34.32 84 35 84C37.2901 87.4352 37.1784 88.9853 37 93C36.01 93.33 35.02 93.66 34 94C31.3125 92.5625 31.3125 92.5625 29 91C29.33 90.34 29.66 89.68 30 89C31.65 89.33 33.3 89.66 35 90C34.3303 86.936 34.3303 86.936 32.1523 85.832C31.4214 85.4956 30.6905 85.1591 29.9375 84.8125C29.204 84.4683 28.4705 84.1241 27.7148 83.7695C27.1489 83.5156 26.583 83.2616 26 83C25.67 84.32 25.34 85.64 25 87C24.75 79.375 24.75 79.375 27 76C27.385 74.3445 27.7279 72.6778 28 71Z" fill="#DB6A07"/>
<path d="M52 68C59.7643 70.5881 64.2987 81.188 68 88C70.8001 94.4861 71.361 101.274 71.875 108.25C71.9368 109.007 71.9986 109.764 72.0623 110.544C72.3425 115.846 71.4155 119.269 69 124C64.545 124.495 64.545 124.495 60 125C60 124.67 60 124.34 60 124C61.4231 123.66 61.4231 123.66 62.875 123.312C66.0818 122.338 66.0818 122.338 67.1719 119.953C70.3351 108.673 68.6002 95.34 63.0078 85.2012C59.4013 78.9665 55.9494 73.2811 50 69C50.66 68.67 51.32 68.34 52 68Z" fill="#F4B20A"/>
<path d="M49 70C54 71 54 71 56 73C55.6112 76.0131 54.7354 77.3969 53 80C53.3392 82.103 53.96 83.9 54.75 85.875C55.1337 89.1366 53.5796 91.2199 52 94C51.34 94 50.68 94 50 94C50 101.59 50 109.18 50 117C49.67 117 49.34 117 49 117C49 101.49 49 85.98 49 70Z" fill="#CA3A01"/>
<path d="M80.875 31.6875C84.4556 31.7591 86.3979 32.3979 89 35C88.6875 36.875 88.6875 36.875 88 39C84.3128 41.4581 82.3565 41.3112 78 41C77.01 40.34 76.02 39.68 75 39C74.6875 36.5 74.6875 36.5 75 34C77 32 77 32 80.875 31.6875Z" fill="#FCE30A"/>
<path d="M134 86C134.33 86 134.66 86 135 86C136.355 93.8823 135.959 99.0177 132 106C130.498 109.003 130.907 111.791 130.938 115.125C130.947 116.406 130.956 117.688 130.965 119.008C130.976 119.995 130.988 120.983 131 122C128.525 122.495 128.525 122.495 126 123C126.144 122.299 126.289 121.598 126.438 120.875C127.015 117.924 127.517 114.967 128 112C127.34 112 126.68 112 126 112C126.309 111.237 126.619 110.474 126.938 109.688C128.033 106.917 128.943 104.39 129.375 101.438C130 99 130 99 133 97C133.583 94.3443 133.583 94.3443 133.688 91.375C133.753 90.3721 133.819 89.3692 133.887 88.3359C133.924 87.5651 133.961 86.7942 134 86Z" fill="#F1B10B"/>
<path d="M38 100C38.33 101.65 38.66 103.3 39 105C40.32 105 41.64 105 43 105C43 107 43 107 41.25 109.063C38.9756 111.021 37.8459 111.42 35 112C33.9667 110.571 32.9487 109.132 31.9375 107.688C31.369 106.887 30.8005 106.087 30.2148 105.262C29.8139 104.515 29.413 103.769 29 103C29.33 102.01 29.66 101.02 30 100C32.9578 98.7761 34.9973 99.0349 38 100Z" fill="#D75C04"/>
<path d="M24 88C24.33 88 24.66 88 25 88C25.2062 89.0725 25.4125 90.145 25.625 91.25C28.1363 101.225 33.7377 110.738 41 118C39.68 118 38.36 118 37 118C30.7074 111.644 25.6148 102.523 23 94C23.3477 90.6133 23.3477 90.6133 24 88Z" fill="#F4B20A"/>
<path d="M37 65C40.375 65.3125 40.375 65.3125 44 66C44.66 66.99 45.32 67.98 46 69C45.4844 69.3713 44.9688 69.7425 44.4375 70.125C42.6368 72.0317 42.6368 72.0317 43.3125 75.1875C43.5394 76.1156 43.7662 77.0437 44 78C40.7863 76.8918 40.0086 76.0147 38.25 73C37 70 37 70 37 68C37.66 68 38.32 68 39 68C39 67.34 39 66.68 39 66C38.34 65.67 37.68 65.34 37 65Z" fill="#CD4203"/>
<path d="M46 69C46.33 69 46.66 69 47 69C47 84.84 47 100.68 47 117C46.67 117 46.34 117 46 117C46 110.73 46 104.46 46 98C44.68 97.34 43.36 96.68 42 96C41.34 95.01 40.68 94.02 40 93C42.475 93.99 42.475 93.99 45 95C45.33 86.42 45.66 77.84 46 69Z" fill="#E59811"/>
<path d="M109 66C110.32 66 111.64 66 113 66C113.107 75.7267 111.392 81.6072 105 89C104.67 88.01 104.34 87.02 104 86C104.996 84.4219 104.996 84.4219 106.438 82.75C109.227 79.0878 109.516 76.6431 109 72C108.674 70.332 108.343 68.6648 108 67C108.33 66.67 108.66 66.34 109 66Z" fill="#EEAA0B"/>
<path d="M52 67C52 67.66 52 68.32 52 69C50.68 69.33 49.36 69.66 48 70C48 85.51 48 101.02 48 117C47.67 117 47.34 117 47 117C47 100.83 47 84.66 47 68C49 67 49 67 52 67Z" fill="#FECB09"/>
<path d="M139 54C139.99 54 140.98 54 142 54C142.043 55.6661 142.041 57.3338 142 59C141.67 59.33 141.34 59.66 141 60C140.917 61.2169 140.835 62.4338 140.75 63.6875C140.124 69.4015 136.965 72.0352 133 76C133.394 73.1641 133.665 71.3967 135.539 69.1797C137.418 66.3759 137.247 64.7086 137.062 61.375C136.91 58.4609 136.91 58.4609 137 56C137.66 55.34 138.32 54.68 139 54Z" fill="#EFAC0C"/>
<path d="M116 107C116.66 107 117.32 107 118 107C116.667 109.667 115.333 112.333 114 115C113.34 115 112.68 115 112 115C112 115.66 112 116.32 112 117C113.65 117 115.3 117 117 117C117 117.33 117 117.66 117 118C110.375 118.25 110.375 118.25 107 116C107 114.68 107 113.36 107 112C108.114 111.732 109.227 111.464 110.375 111.188C114.218 110.342 114.218 110.342 116 107Z" fill="#C74E05"/>
<path d="M123 62C124.32 62.33 125.64 62.66 127 63C126.67 66.96 126.34 70.92 126 75C127.32 75.33 128.64 75.66 130 76C127.03 76 124.06 76 121 76C121.99 75.67 122.98 75.34 124 75C123.649 73.9688 123.299 72.9375 122.938 71.875C122.005 68.0201 122.074 65.7983 123 62Z" fill="#ECA50A"/>
<path d="M69 109C69.99 109.33 70.98 109.66 72 110C72.3462 115.654 71.4343 119.03 69 124C64.545 124.495 64.545 124.495 60 125C60 124.67 60 124.34 60 124C61.4231 123.66 61.4231 123.66 62.875 123.312C66.0869 122.319 66.0869 122.319 67.3125 119.875C68.1794 116.25 68.6228 112.709 69 109Z" fill="#F3AF09"/>
<path d="M28 80C28.5569 80.5981 29.1137 81.1963 29.6875 81.8125C31.8977 84.1149 31.8977 84.1149 34.75 85.375C35.4925 85.9112 36.235 86.4475 37 87C37.3125 90.1875 37.3125 90.1875 37 93C36.01 93.33 35.02 93.66 34 94C31.3125 92.5625 31.3125 92.5625 29 91C29.33 90.34 29.66 89.68 30 89C31.65 89.33 33.3 89.66 35 90C34.2773 86.7015 34.2773 86.7015 30.9375 85.3125C29.9681 84.8794 28.9987 84.4462 28 84C28 82.68 28 81.36 28 80Z" fill="#F1AA0B"/>
<path d="M121 78C121.33 78 121.66 78 122 78C122.33 81.96 122.66 85.92 123 90C123.66 90 124.32 90 125 90C125 87.03 125 84.06 125 81C125.66 81 126.32 81 127 81C127.812 84.1875 127.812 84.1875 128 88C125.562 90.9375 125.562 90.9375 123 93C122.34 92.67 121.68 92.34 121 92C121 87.38 121 82.76 121 78Z" fill="#E89A0B"/>
<path d="M51 106C54.8938 107.298 55.002 108.448 57 112C58.0523 113.611 59.1155 115.215 60.1875 116.812C60.7173 117.603 61.2471 118.393 61.793 119.207C62.1913 119.799 62.5896 120.39 63 121C58.545 120.01 58.545 120.01 54 119C54 118.34 54 117.68 54 117C54.99 117 55.98 117 57 117C56.3813 116.113 55.7625 115.226 55.125 114.312C53.346 111.539 52.0892 109.086 51 106Z" fill="#F3B00C"/>
<path d="M29 44C33.498 45.6867 37.7289 47.8167 42 50C41.67 50.99 41.34 51.98 41 53C36.6924 51.4336 32.9383 49.3166 29 47C29 46.01 29 45.02 29 44Z" fill="#F99906"/>
<path d="M60 95C60.66 95 61.32 95 62 95C63.3823 96.6263 64.7194 98.2925 66 100C64.68 99.67 63.36 99.34 62 99C61.34 100.32 60.68 101.64 60 103C54.4615 102.508 54.4615 102.508 52.125 99.9375C51.7537 99.2981 51.3825 98.6587 51 98C53.64 98.33 56.28 98.66 59 99C59.33 97.68 59.66 96.36 60 95Z" fill="#F3AE0B"/>
<path d="M134 86C134.33 86 134.66 86 135 86C136.517 97.5216 136.517 97.5216 134 103C133.34 103 132.68 103 132 103C131.34 103.66 130.68 104.32 130 105C129.25 103.25 129.25 103.25 129 101C129.619 100.484 130.238 99.9688 130.875 99.4375C134.256 95.5595 133.828 90.99 134 86Z" fill="#E28F0C"/>
<path d="M54 78C55.3333 82 56.6667 86 58 90C56.7103 91.3756 55.3731 92.7077 54 94C53.34 94 52.68 94 52 94C52.5758 91.6144 53.2223 89.3332 54 87C53.67 86.3606 53.34 85.7212 53 85.0625C52 83 52 83 52.3125 80.8125C53 79 53 79 54 78Z" fill="#F4B20C"/>
<path d="M22 53C23.98 53.495 23.98 53.495 26 54C26.33 55.65 26.66 57.3 27 59C25.125 59.625 25.125 59.625 23 60C22.34 59.34 21.68 58.68 21 58C21.375 55.375 21.375 55.375 22 53Z" fill="#EFA60A"/>
<path d="M69 133C71.475 133.495 71.475 133.495 74 134C74.33 135.65 74.66 137.3 75 139C73.68 139.33 72.36 139.66 71 140C69 137 69 137 69 133Z" fill="#EC9F0A"/>
<path d="M115 85C115.66 85 116.32 85 117 85C116.814 86.2375 116.629 87.475 116.438 88.75C116.053 91.7628 115.913 94.1001 117 97C114.525 96.01 114.525 96.01 112 95C112.308 93.5199 112.622 92.0409 112.938 90.5625C113.199 89.3269 113.199 89.3269 113.465 88.0664C114 86 114 86 115 85Z" fill="#EBA40B"/>
<path d="M22 107C23.32 107.33 24.64 107.66 26 108C26.33 109.65 26.66 111.3 27 113C25.68 113 24.36 113 23 113C22 112 22 112 21.9375 109.438C21.9581 108.633 21.9787 107.829 22 107Z" fill="#F1AA0A"/>
<path d="M121 93C123 97 123 97 123 99C123.66 99 124.32 99 125 99C124.494 101.169 124 103 123 105C122.34 105 121.68 105 121 105C121 101.04 121 97.08 121 93Z" fill="#CB5804"/>
<path d="M111 79C112.32 79.33 113.64 79.66 115 80C114.043 81.1259 113.084 82.2507 112.125 83.375C111.591 84.0015 111.058 84.628 110.508 85.2734C109.386 86.5584 108.206 87.7937 107 89C107 84.2809 108.288 82.7296 111 79Z" fill="#C34C05"/>
<path d="M70 78C71.32 78.66 72.64 79.32 74 80C74 81.65 74 83.3 74 85C72.68 84.67 71.36 84.34 70 84C69.6178 82.3439 69.286 80.6754 69 79C69.33 78.67 69.66 78.34 70 78Z" fill="#EEA40A"/>
<path d="M98 119C98.66 119.33 99.32 119.66 100 120C100.312 123.188 100.312 123.188 100 127C97.5 129.938 97.5 129.938 95 132C95 129 95 129 97 127C97.4581 125.028 97.4581 125.028 97.625 122.875C97.7488 121.596 97.8725 120.317 98 119Z" fill="#EBA70E"/>
<path d="M89 113C90.32 113 91.64 113 93 113C92.67 114.65 92.34 116.3 92 118C90.68 118.33 89.36 118.66 88 119C87.9573 117.334 87.9594 115.666 88 114C88.33 113.67 88.66 113.34 89 113Z" fill="#EDA80B"/>
<path d="M100 77C100 81.62 100 86.24 100 91C99.67 91 99.34 91 99 91C99 88.03 99 85.06 99 82C98.34 82 97.68 82 97 82C96.67 80.68 96.34 79.36 96 78C98 77 98 77 100 77Z" fill="#E59509"/>
<path d="M141 76C141.99 76 142.98 76 144 76C143.67 77.65 143.34 79.3 143 81C141.68 81.33 140.36 81.66 139 82C139.875 77.125 139.875 77.125 141 76Z" fill="#F2B10B"/>
<path d="M116 107C116.66 107 117.32 107 118 107C116.796 109.494 115.546 111.681 114 114C111.03 113.505 111.03 113.505 108 113C108.33 112.34 108.66 111.68 109 111C110.207 110.783 110.207 110.783 111.438 110.562C114.344 110.235 114.344 110.235 116 107Z" fill="#EEA90C"/>
<path d="M69 109C69.99 109.33 70.98 109.66 72 110C72.125 116.75 72.125 116.75 71 119C70.34 119 69.68 119 69 119C69 115.7 69 112.4 69 109Z" fill="#E99B0B"/>
<path d="M38 104C39.65 104.33 41.3 104.66 43 105C43 105.66 43 106.32 43 107C40.4385 109.296 39.5203 110 36 110C36.66 108.02 37.32 106.04 38 104Z" fill="#F6B609"/>
<path d="M108 101C110.97 101 113.94 101 117 101C115 104 115 104 111.875 104.688C110.926 104.791 109.978 104.894 109 105C108.67 103.68 108.34 102.36 108 101Z" fill="#F0AD0A"/>
<path d="M120.999 108C121.329 108 121.659 108 121.999 108C122.329 109.65 122.659 111.3 122.999 113C123.989 112.34 124.979 111.68 125.999 111C125.999 111.99 125.999 112.98 125.999 114C123.999 115.688 123.999 115.688 121.999 117C120.52 114.043 120.938 111.258 120.999 108Z" fill="#E6970A"/>
<path d="M58 107C60.64 107.33 63.28 107.66 66 108C66 108.99 66 109.98 66 111C64.02 111 62.04 111 60 111C59.34 109.68 58.68 108.36 58 107Z" fill="#EFA30C"/>
<path d="M109 85C109.66 85.66 110.32 86.32 111 87C109.68 89.64 108.36 92.28 107 95C106.34 94.67 105.68 94.34 105 94C106.199 90.9169 107.477 87.9372 109 85Z" fill="#EEAA0C"/>
<path d="M38 69C40.7856 70.3928 41.5238 72.3043 43 75C43.33 75.99 43.66 76.98 44 78C40.8388 76.6302 40.0073 76.0109 38 73C38 71.68 38 70.36 38 69Z" fill="#F2AB0D"/>
<path d="M51 106C54.7661 107.255 55.2644 108.529 57 112C57 112.99 57 113.98 57 115C51.4286 109.857 51.4286 109.857 51 106Z" fill="#EEA00D"/>
</g>
<defs>
<clipPath id="clip0_899_6270">
<rect width="487" height="167" fill="white"/>
</clipPath>
</defs>
</svg>
